<svg width="165" height="28" viewBox="0 0 165 28" fill="none" xmlns="http://www.w3.org/2000/svg">
<path d="M20.3226 27.8654H12.7051V17.2308H7.78255V27.8385H0V0.457692H7.78255V10.6885H12.7051V0.457692H20.3226V27.8654ZM55.1929 27.9731C62.9754 27.9731 69.3279 21.6192 69.3279 13.9192C69.3279 6.05769 62.9754 0 55.1929 0C47.3003 0 43.3128 5.62692 42.3503 7.88846C42.3503 4.49615 38.8853 0.430769 34.8702 0.430769H21.8901V27.8385H33.9902C38.9128 27.8385 42.3778 23.7192 42.3778 20.1115C43.4503 22.3731 47.3003 27.9731 55.1929 27.9731ZM33.0002 16.8538C34.1277 16.8538 35.0352 17.9308 35.0352 19.1423C35.0352 20.4346 34.1277 21.4846 33.0002 21.4846H29.1502V16.8538H33.0002ZM33.0002 6.56923C34.1277 6.56923 35.0352 7.64615 35.0352 8.85769C35.0352 10.0692 34.1277 11.1462 33.0002 11.1462H29.1502V6.56923H33.0002ZM38.1152 13.9192C39.0228 13.8654 40.4803 12.8423 41.0578 12.25C40.8378 12.9769 40.8378 15.2923 41.0578 16.0192C40.4253 15.1308 39.0228 14.0538 38.1152 13.9192ZM48.0978 13.9192C48.0978 10.0692 51.2878 6.94615 55.2479 6.97308C59.2079 7 62.3704 10.15 62.3154 14.0269C62.2604 17.85 59.0979 20.9192 55.2204 20.9192C51.2603 20.8923 48.0978 17.7962 48.0978 13.9192ZM55.1929 19.4115C58.2179 19.4115 60.7754 16.9615 60.7754 13.9192C60.7754 10.8769 58.2179 8.45385 55.1929 8.45385C52.0853 8.45385 49.5828 10.8769 49.5828 13.9192C49.5828 16.9615 52.0853 19.4115 55.1929 19.4115ZM109.973 10.15C109.836 3.52692 105.051 0 99.1656 0C95.9206 0 93.0331 1.05 91.0531 3.12308C89.0456 1.05 86.1581 0 82.913 0C77.028 0 72.243 3.52692 72.078 10.1769V25.3615C72.078 26.7615 73.233 27.8923 74.663 27.8923H77.083C77.3305 27.8923 77.523 27.7038 77.523 27.4615V10.2308C77.633 6.94615 79.998 5.22308 82.913 5.22308C85.8281 5.22308 88.2206 6.94615 88.3031 10.2308V25.3615C88.3031 26.7615 89.4581 27.8923 90.8881 27.8923H93.3081C93.5556 27.8923 93.7481 27.7038 93.7481 27.4615V10.2308C93.8581 6.94615 96.2231 5.22308 99.1381 5.22308C102.053 5.22308 104.446 6.94615 104.528 10.2308V25.3615C104.528 26.7615 105.683 27.8923 107.113 27.8923H109.533C109.781 27.8923 109.973 27.7038 109.973 27.4615V10.2308C110.001 10.2038 109.973 10.1769 109.973 10.15ZM164.671 0.457692H160.546C159.419 0.457692 158.346 1.02308 157.714 1.93846L153.148 8.56154C152.543 9.42308 151.251 9.42308 150.673 8.56154L146.108 1.93846C145.476 1.02308 144.403 0.457692 143.276 0.457692H139.151C138.903 0.457692 138.738 0.726923 138.876 0.942308L147.016 12.7615C147.593 13.6231 147.593 14.7269 147.016 15.5885L138.876 27.3808C138.738 27.5962 138.876 27.8654 139.151 27.8654H143.276C144.403 27.8654 145.476 27.3 146.108 26.3846L150.673 19.7615C151.278 18.9 152.571 18.9 153.148 19.7615L157.714 26.3846C158.346 27.3 159.419 27.8654 160.546 27.8654H164.671C164.919 27.8654 165.084 27.5962 164.946 27.3808L156.806 15.5615C156.229 14.7 156.229 13.5962 156.806 12.7346L164.946 0.915385C165.084 0.726923 164.946 0.457692 164.671 0.457692ZM137.006 0.457692H134.586C133.348 0.457692 132.331 1.31923 132.083 2.45C129.911 0.834615 127.216 0.0269231 124.273 0.0269231C117.123 0 111.376 4.84615 111.376 14C111.376 23.1538 117.151 28 124.246 28C127.161 28 129.856 27.1923 132.001 25.6038C132.111 26.8962 133.211 27.8923 134.558 27.8923H136.978C137.226 27.8923 137.418 27.7038 137.418 27.4615V0.861539C137.418 0.646154 137.226 0.457692 137.006 0.457692ZM124.246 22.7769C120.011 22.7769 116.546 19.7346 116.546 14C116.546 8.26539 119.983 5.22308 124.246 5.22308C128.508 5.22308 131.946 8.26539 131.946 14C131.946 19.7346 128.508 22.7769 124.246 22.7769Z" fill="black"/>
</svg>
